<?xml version="1.0" encoding="UTF-8"?>
<svg version="1.1" xmlns="http://www.w3.org/2000/svg" width="1280" height="1280">
<path d="M0 0 C422.4 0 844.8 0 1280 0 C1280 422.4 1280 844.8 1280 1280 C857.6 1280 435.2 1280 0 1280 C0 857.6 0 435.2 0 0 Z " fill="#010101" transform="translate(0,0)"/>
<path d="M0 0 C159.72 0 319.44 0 484 0 C484 122.43 484 244.86 484 371 C324.28 371 164.56 371 0 371 C0 248.57 0 126.14 0 0 Z " fill="#010101" transform="translate(398,513)"/>
<path d="M0 0 C17.49 0 34.98 0 53 0 C53 47.19 53 94.38 53 143 C212.72 143 372.44 143 537 143 C537 95.81 537 48.62 537 0 C554.49 0 571.98 0 590 0 C590 204.93 590 409.86 590 621 C395.3 621 200.6 621 0 621 C0 416.07 0 211.14 0 0 Z M53 197 C53 319.43 53 441.86 53 568 C212.72 568 372.44 568 537 568 C537 445.57 537 323.14 537 197 C377.28 197 217.56 197 53 197 Z " fill="#FCFCFB" transform="translate(345,316)"/>
<path d="M0 0 C46.86 0 93.72 0 142 0 C142 383.13 142 766.26 142 1161 C95.47 1161 48.94 1161 1 1161 C1 1143.51 1 1126.02 1 1108 C30.04 1108 59.08 1108 89 1108 C89 760.18 89 412.36 89 54 C59.63 54 30.26 54 0 54 C0 36.18 0 18.36 0 0 Z " fill="#FDFDFC" transform="translate(1052,61)"/>
<path d="M0 0 C46.53 0 93.06 0 141 0 C141 17.82 141 35.64 141 54 C111.96 54 82.92 54 53 54 C53 401.82 53 749.64 53 1108 C82.04 1108 111.08 1108 141 1108 C141 1125.49 141 1142.98 141 1161 C94.47 1161 47.94 1161 0 1161 C0 777.87 0 394.74 0 0 Z " fill="#FCFCFC" transform="translate(86,61)"/>
<path d="M0 0 C29.04 0 58.08 0 88 0 C88 29.04 88 58.08 88 88 C58.96 88 29.92 88 0 88 C0 58.96 0 29.92 0 0 Z " fill="#F9FAF8" transform="translate(710,628)"/>
<path d="M0 0 C28.38 0 56.76 0 86 0 C86 28.71 86 57.42 86 87 C57.62 87 29.24 87 0 87 C0 58.29 0 29.58 0 0 Z " fill="#FDFEFC" transform="translate(483,629)"/>
<path d="M0 0 C0 2.97 0 5.94 0 9 C-0.33 8.34 -0.66 7.68 -1 7 C-1.66 7 -2.32 7 -3 7 C-3 5.02 -3 3.04 -3 1 C-1 0 -1 0 0 0 Z " fill="#F9FAF5" transform="translate(397,513)"/>
</svg>
